<svg xmlns="http://www.w3.org/2000/svg" xmlns:xlink="http://www.w3.org/1999/xlink" viewBox="0 0 23.64 24.82"><defs><style>.cls-1{fill:none;}.cls-2{clip-path:url(#clip-path);}.cls-3{fill:#fff;}</style><clipPath id="clip-path" transform="translate(-0.83 0)"><rect class="cls-1" width="25.29" height="24.82"/></clipPath></defs><title>Ресурс 1</title><g id="Слой_2" data-name="Слой 2"><g id="Layer_1" data-name="Layer 1"><g class="cls-2"><path class="cls-3" d="M15.42,24.82H9.88a9.06,9.06,0,0,1-9-9V9.05A9.06,9.06,0,0,1,9.88,0h5.54a9.05,9.05,0,0,1,9,9.05v6.72a9.05,9.05,0,0,1-9,9.05M9.88,1.62A7.43,7.43,0,0,0,2.45,9.05v6.72A7.43,7.43,0,0,0,9.88,23.2h5.54a7.43,7.43,0,0,0,7.42-7.43V9.05a7.43,7.43,0,0,0-7.42-7.43Z" transform="translate(-0.83 0)"/><path class="cls-3" d="M12.65,18.29a5.88,5.88,0,1,1,5.88-5.88,5.88,5.88,0,0,1-5.88,5.88m0-10.14a4.26,4.26,0,1,0,4.25,4.26,4.26,4.26,0,0,0-4.25-4.26" transform="translate(-0.83 0)"/><path class="cls-3" d="M20.5,6.25A1.3,1.3,0,1,1,19.2,5a1.3,1.3,0,0,1,1.3,1.3" transform="translate(-0.83 0)"/></g></g></g></svg>